<?xml version="1.0" encoding="UTF-8" standalone="no"?>
<!-- Creator: CorelDRAW X7 -->

<svg
   xmlns:dc="http://purl.org/dc/elements/1.1/"
   xmlns:cc="http://creativecommons.org/ns#"
   xmlns:rdf="http://www.w3.org/1999/02/22-rdf-syntax-ns#"
   xmlns:svg="http://www.w3.org/2000/svg"
   xmlns="http://www.w3.org/2000/svg"
   xmlns:sodipodi="http://sodipodi.sourceforge.net/DTD/sodipodi-0.dtd"
   xmlns:inkscape="http://www.inkscape.org/namespaces/inkscape"
   xml:space="preserve"
   width="136.77916mm"
   height="86.423965mm"
   version="1.1"
   style="clip-rule:evenodd;fill-rule:evenodd;image-rendering:optimizeQuality;shape-rendering:geometricPrecision;text-rendering:geometricPrecision"
   viewBox="0 0 13677.916 8642.3965"
   id="svg22"
   sodipodi:docname="logo.svg"
   inkscape:version="0.92.4 (5da689c313, 2019-01-14)"><metadata
   id="metadata26"><rdf:RDF><cc:Work
       rdf:about=""><dc:format>image/svg+xml</dc:format><dc:type
         rdf:resource="http://purl.org/dc/dcmitype/StillImage" /><dc:title></dc:title></cc:Work></rdf:RDF></metadata><sodipodi:namedview
   pagecolor="#ffffff"
   bordercolor="#666666"
   borderopacity="1"
   objecttolerance="10"
   gridtolerance="10"
   guidetolerance="10"
   inkscape:pageopacity="0"
   inkscape:pageshadow="2"
   inkscape:window-width="1920"
   inkscape:window-height="1018"
   id="namedview24"
   showgrid="false"
   fit-margin-top="0"
   fit-margin-left="0"
   fit-margin-right="0"
   fit-margin-bottom="0"
   inkscape:zoom="1.1374991"
   inkscape:cx="249.65616"
   inkscape:cy="90.72365"
   inkscape:window-x="-8"
   inkscape:window-y="-8"
   inkscape:window-maximized="1"
   inkscape:current-layer="svg22" />
 <defs
   id="defs4">
  <style
   type="text/css"
   id="style2">
   <![CDATA[
    .fil3 {fill:#2B2A29}
    .fil0 {fill:#E31E24}
    .fil2 {fill:#2B2A29;fill-rule:nonzero}
    .fil1 {fill:#E31E24;fill-rule:nonzero}
   ]]>
  </style>
 
  
  
  
  
 </defs>
 <g
   id="_767429328"
   transform="matrix(2.9395907,0,0,2.9395907,-35.275088,-88.187721)"
   style="fill:#ffffff">
   <path
   style="fill:#ffffff"
   inkscape:connector-curvature="0"
   id="path7"
   d="m 3936,431 c 449,268 729,648 729,1069 0,812 -1042,1470 -2326,1470 -447,0 -864,-79 -1218,-217 425,145 972,164 1536,23 C 3772,2498 4533,1701 4358,997 4301,767 4151,575 3936,431 Z"
   class="fil0" />
   <path
   style="fill:#ffffff"
   inkscape:connector-curvature="0"
   id="path9"
   d="m 2339,30 c 446,0 863,79 1217,217 C 3131,102 2585,83 2021,224 906,502 144,1299 320,2003 377,2233 527,2425 742,2569 293,2301 12,1921 12,1500 12,688 1054,30 2339,30 Z"
   class="fil0" />
   <path
   style="fill:#ffffff;fill-rule:nonzero"
   inkscape:connector-curvature="0"
   id="path11"
   d="m 1032,802 h 349 c 107,0 196,28 266,84 69,56 104,134 104,236 0,36 -4,72 -13,106 l -110,466 c -32,138 -87,236 -165,295 -68,52 -162,79 -282,79 H 805 c -115,0 -200,-26 -256,-78 -55,-52 -83,-129 -83,-230 0,-60 8,-123 24,-187 l 80,-347 c 32,-133 78,-233 138,-299 77,-83 185,-125 324,-125 z m 70,367 -117,506 c -4,17 -6,32 -6,44 0,31 17,46 51,46 24,0 41,-5 53,-16 11,-10 20,-29 26,-55 l 121,-516 c 3,-14 4,-24 4,-29 0,-35 -18,-53 -53,-53 -39,0 -66,24 -79,73 z m 1263,596 h 237 c 18,0 37,-5 58,-14 20,-9 32,-20 35,-34 h 42 l -53,231 c -8,41 -25,70 -49,87 -31,22 -78,33 -141,33 h -413 c -123,0 -212,-24 -266,-72 -47,-43 -71,-107 -71,-194 0,-56 9,-125 29,-206 l 101,-441 c 26,-115 75,-204 148,-266 68,-58 145,-87 231,-87 h 624 c -4,22 -10,53 -18,93 -9,40 -16,71 -22,93 -10,38 -22,64 -37,78 -20,20 -51,30 -95,30 h -189 c -44,0 -76,10 -96,31 -19,21 -33,52 -42,94 l -101,434 c -3,14 -5,26 -5,37 0,49 31,73 93,73 z m 1306,-253 -255,389 c -15,19 -24,32 -28,38 -7,12 -11,25 -11,37 0,13 7,25 19,35 12,10 25,14 38,14 l -9,43 h -511 c -41,0 -61,-20 -61,-59 0,-6 1,-17 4,-31 L 3108,901 c 2,-12 -3,-24 -17,-37 -13,-13 -27,-19 -40,-19 l 13,-43 h 510 c 39,0 58,20 58,59 0,5 0,15 0,29 l -113,474 240,-364 c 11,-15 21,-31 31,-45 10,-15 17,-33 22,-54 2,-12 -2,-24 -15,-37 -12,-13 -25,-19 -38,-19 l 9,-43 h 510 c 20,0 35,6 45,16 9,10 13,25 13,45 l -3,27 -250,1079 c -2,12 3,24 17,37 13,13 27,19 40,19 l -13,43 h -509 c -39,0 -59,-20 -59,-59 0,-5 0,-15 0,-29 z"
   class="fil1" />
  </g>
</svg>