<?xml version="1.0" encoding="UTF-8"?>
<!DOCTYPE svg PUBLIC "-//W3C//DTD SVG 1.1//EN" "http://www.w3.org/Graphics/SVG/1.1/DTD/svg11.dtd">
<!-- Creator: CorelDRAW X7 -->
<svg xmlns="http://www.w3.org/2000/svg" xml:space="preserve" width="250mm" height="30mm" version="1.1" style="shape-rendering:geometricPrecision; text-rendering:geometricPrecision; image-rendering:optimizeQuality; fill-rule:evenodd; clip-rule:evenodd"
viewBox="0 0 25000 3000"
 xmlns:xlink="http://www.w3.org/1999/xlink">
 <defs>
  <style type="text/css">
   <![CDATA[
    .fil3 {fill:#2B2A29}
    .fil0 {fill:#E31E24}
    .fil2 {fill:#2B2A29;fill-rule:nonzero}
    .fil1 {fill:#E31E24;fill-rule:nonzero}
   ]]>
  </style>
 </defs>
 <g id="Layer_x0020_1">
  <metadata id="CorelCorpID_0Corel-Layer"/>
  <g id="_767429328">
   <path class="fil0" d="M3936 431c449,268 729,648 729,1069 0,812 -1042,1470 -2326,1470 -447,0 -864,-79 -1218,-217 425,145 972,164 1536,23 1115,-278 1876,-1075 1701,-1779 -57,-230 -207,-422 -422,-566z"/>
   <path class="fil0" d="M2339 30c446,0 863,79 1217,217 -425,-145 -971,-164 -1535,-23 -1115,278 -1877,1075 -1701,1779 57,230 207,422 422,566 -449,-268 -730,-648 -730,-1069 0,-812 1042,-1470 2327,-1470z"/>
   <path class="fil1" d="M1032 802l349 0c107,0 196,28 266,84 69,56 104,134 104,236 0,36 -4,72 -13,106l-110 466c-32,138 -87,236 -165,295 -68,52 -162,79 -282,79l-376 0c-115,0 -200,-26 -256,-78 -55,-52 -83,-129 -83,-230 0,-60 8,-123 24,-187l80 -347c32,-133 78,-233 138,-299 77,-83 185,-125 324,-125zm70 367l-117 506c-4,17 -6,32 -6,44 0,31 17,46 51,46 24,0 41,-5 53,-16 11,-10 20,-29 26,-55l121 -516c3,-14 4,-24 4,-29 0,-35 -18,-53 -53,-53 -39,0 -66,24 -79,73zm1263 596l237 0c18,0 37,-5 58,-14 20,-9 32,-20 35,-34l42 0 -53 231c-8,41 -25,70 -49,87 -31,22 -78,33 -141,33l-413 0c-123,0 -212,-24 -266,-72 -47,-43 -71,-107 -71,-194 0,-56 9,-125 29,-206l101 -441c26,-115 75,-204 148,-266 68,-58 145,-87 231,-87l624 0c-4,22 -10,53 -18,93 -9,40 -16,71 -22,93 -10,38 -22,64 -37,78 -20,20 -51,30 -95,30l-189 0c-44,0 -76,10 -96,31 -19,21 -33,52 -42,94l-101 434c-3,14 -5,26 -5,37 0,49 31,73 93,73zm1306 -253l-255 389c-15,19 -24,32 -28,38 -7,12 -11,25 -11,37 0,13 7,25 19,35 12,10 25,14 38,14l-9 43 -511 0c-41,0 -61,-20 -61,-59 0,-6 1,-17 4,-31l251 -1077c2,-12 -3,-24 -17,-37 -13,-13 -27,-19 -40,-19l13 -43 510 0c39,0 58,20 58,59 0,5 0,15 0,29l-113 474 240 -364c11,-15 21,-31 31,-45 10,-15 17,-33 22,-54 2,-12 -2,-24 -15,-37 -12,-13 -25,-19 -38,-19l9 -43 510 0c20,0 35,6 45,16 9,10 13,25 13,45l-3 27 -250 1079c-2,12 3,24 17,37 13,13 27,19 40,19l-13 43 -509 0c-39,0 -59,-20 -59,-59 0,-5 0,-15 0,-29l112 -468z"/>
  </g>
  <path class="fil2" d="M6168 476c154,0 267,33 338,97 68,60 102,153 102,278 0,34 -3,73 -9,115 -6,43 -14,90 -25,141 -60,256 -127,423 -203,503 -85,86 -231,130 -439,130 -154,0 -266,-29 -334,-88 -69,-58 -104,-154 -104,-288 0,-94 16,-210 48,-348 43,-183 103,-313 180,-392 98,-98 246,-148 446,-148zm87 654c12,-51 21,-99 28,-145 8,-46 11,-84 11,-117 0,-54 -12,-95 -35,-121 -24,-26 -63,-39 -118,-39 -81,0 -141,23 -182,68 -46,52 -85,149 -117,290 -31,142 -47,240 -47,296 0,55 13,93 39,114 27,21 72,32 136,32 77,0 135,-25 174,-76 40,-50 77,-151 111,-302zm632 -368l285 0c52,0 77,21 77,64l52 456 185 -430 7 -35c0,-18 -12,-27 -35,-27l7 -28 274 0c51,0 77,21 77,64l46 821c0,13 6,24 18,34 12,9 24,14 37,14l-7 29 -260 0c-20,0 -35,-7 -45,-19 -11,-13 -17,-29 -19,-51l-18 -468 -219 538 -178 0c-25,0 -44,-7 -57,-21 -13,-13 -22,-32 -25,-56l-57 -461 -139 429c-6,18 -9,31 -9,39 0,10 5,19 15,28 10,9 22,13 35,13l-11 29 -235 0c-43,0 -64,-18 -64,-52 0,-15 4,-36 14,-61l273 -773 5 -21c0,-18 -12,-27 -36,-27l7 -28zm1533 757l142 0c64,0 109,-4 134,-11 25,-7 44,-22 57,-44l28 0 -32 142c-13,56 -36,92 -70,109 -34,16 -91,25 -170,25l-253 0c-86,0 -144,-20 -176,-58 -31,-39 -47,-103 -47,-194 0,-26 7,-71 20,-135 4,-23 16,-75 35,-157 39,-165 94,-282 164,-352 55,-55 122,-82 202,-82l422 0 -38 146c-10,39 -54,58 -131,58l-157 0c-37,0 -69,14 -96,42 -26,28 -44,65 -52,110l-59 258c-6,28 -9,49 -9,64 0,26 7,46 20,59 13,13 35,20 66,20zm513 100l244 -1037c0,-12 0,-21 0,-25 0,-23 -13,-34 -39,-34l5 -29 273 0c21,0 35,5 42,15 8,9 11,22 11,39 0,10 -3,28 -9,51l-107 458 228 -224c10,-9 15,-16 15,-23 0,-11 -10,-18 -29,-20l5 -28 266 0c24,0 36,9 36,28 0,13 -5,23 -15,30l-285 259 50 0c67,0 117,14 151,42 34,29 50,65 50,107 0,10 0,19 0,27 -2,13 -4,24 -5,34l-85 347c0,12 0,21 0,25 0,23 13,34 39,34l-6 29 -272 0c-20,0 -34,-4 -42,-12 -8,-8 -12,-19 -12,-35 0,-15 3,-35 9,-58l63 -266 5 -43c0,-38 -34,-57 -103,-57l-110 0 -90 383c0,12 0,21 0,25 0,23 13,34 39,34l-5 29 -273 0c-20,0 -34,-4 -42,-12 -7,-8 -11,-19 -11,-35 0,-15 3,-35 9,-58zm1999 -127l194 0c31,0 55,-4 71,-12 17,-9 34,-25 52,-49l32 0 -37 168c-10,45 -29,77 -56,96 -28,19 -65,29 -110,29l-301 0c-113,0 -196,-25 -248,-75 -52,-50 -78,-136 -78,-259 0,-78 16,-179 50,-302 66,-246 141,-411 224,-494 68,-66 168,-100 301,-100l385 0 -28 113c-10,36 -25,63 -46,78 -21,15 -53,23 -97,23l-116 0c-88,0 -152,24 -192,73 -45,55 -87,168 -127,340 -27,117 -41,200 -41,250 0,47 13,79 38,96 25,17 68,25 130,25zm1076 27l53 -241 -133 0c-80,0 -128,37 -146,111 -5,19 -7,37 -7,55 0,28 9,48 27,59 19,10 49,16 92,16l114 0zm221 -757c69,0 119,16 151,48 29,28 43,69 43,123 0,36 -5,76 -16,119l-139 584c0,12 0,21 0,25 0,23 13,34 39,34l-5 29 -273 0c-20,0 -34,-4 -41,-12 -8,-8 -12,-19 -12,-35 0,-15 3,-35 9,-58l9 -34 -22 0 -48 83c-16,29 -38,48 -65,57 -27,10 -76,15 -149,15 -83,0 -144,-22 -185,-66 -35,-39 -53,-95 -53,-166 0,-36 4,-76 14,-121 25,-107 64,-183 116,-228 52,-45 126,-68 221,-68l230 0c29,0 47,-11 53,-34l7 -35 4 -32c0,-22 -13,-32 -40,-32l-276 0c-46,0 -69,-19 -69,-57l5 -31 27 -108 465 0zm1263 105l-174 769c0,12 0,21 0,25 0,23 13,34 39,34l-6 29 -272 0c-22,0 -36,-5 -43,-15 -7,-9 -11,-22 -11,-39 0,-8 1,-17 2,-26 1,-9 4,-21 9,-36l-14 0 -54 75c-16,22 -39,37 -68,45 -29,8 -83,12 -160,12 -82,0 -140,-15 -175,-44 -35,-29 -53,-71 -53,-126 0,-35 9,-92 28,-171l127 -550c0,-12 0,-20 0,-25 0,-23 -13,-34 -39,-34l5 -28 273 0c21,0 36,4 43,14 7,9 10,22 10,39 0,11 -3,28 -9,52l-121 529c-4,20 -7,39 -7,57 0,24 6,41 17,51 12,10 29,15 52,15l45 0c36,0 64,-6 84,-16 26,-15 45,-41 54,-79l135 -575c0,-12 0,-20 0,-25 0,-23 -13,-34 -39,-34l5 -28 273 0c21,0 35,4 42,14 7,9 11,22 11,39 0,11 -3,28 -9,52zm-160 -218l-421 0c-45,0 -67,-19 -67,-58 0,-9 0,-15 1,-20l18 -77 421 0c45,0 67,20 67,59 0,8 0,15 -1,20l-18 76zm1110 113c48,0 83,9 103,28 17,16 25,40 25,75l-11 69 -169 733c-28,124 -70,210 -126,255 -55,46 -139,69 -252,69l-297 0c-52,0 -94,-10 -125,-29 -31,-20 -46,-49 -46,-89 0,-10 2,-23 5,-37l29 -132 23 0c7,21 20,38 39,49 19,11 47,17 84,17l171 0c62,0 110,-10 145,-30 35,-20 57,-54 67,-102l23 -101 -14 -2 -59 80c-17,23 -38,37 -64,43 -26,6 -69,9 -127,9 -90,0 -156,-21 -198,-64 -43,-42 -64,-107 -64,-195 0,-59 10,-134 31,-224 34,-151 91,-260 169,-328 72,-63 170,-94 292,-94l346 0zm-182 204l-103 0c-70,0 -121,18 -151,54 -30,36 -54,93 -73,172 -18,79 -28,137 -28,175 0,63 30,95 90,95 55,0 95,-7 119,-22 30,-19 51,-56 64,-112l82 -362zm1381 -99l-175 769c0,12 0,21 0,25 0,23 13,34 39,34l-5 29 -273 0c-21,0 -35,-5 -42,-15 -7,-9 -11,-22 -11,-39 0,-8 1,-17 2,-26 1,-9 4,-21 9,-36l-15 0 -53 75c-17,22 -39,37 -69,45 -29,8 -82,12 -159,12 -82,0 -140,-15 -176,-44 -35,-29 -52,-71 -52,-126 0,-35 9,-92 27,-171l128 -550c0,-12 0,-20 0,-25 0,-23 -13,-34 -39,-34l5 -28 273 0c21,0 35,4 42,14 8,9 11,22 11,39 0,11 -3,28 -9,52l-121 529c-5,20 -7,39 -7,57 0,24 6,41 17,51 11,10 28,15 51,15l45 0c36,0 64,-6 85,-16 26,-15 44,-41 54,-79l135 -575c0,-12 0,-20 0,-25 0,-23 -14,-34 -40,-34l6 -28 272 0c22,0 36,4 43,14 7,9 11,22 11,39 0,11 -3,28 -9,52zm739 249l63 -267c0,-12 0,-20 0,-25 0,-23 -13,-34 -40,-34l6 -28 272 0c22,0 36,4 43,14 7,9 11,22 11,39 0,11 -3,28 -9,52l-182 769c0,12 0,21 0,25 0,23 13,34 39,34l-5 29 -273 0c-20,0 -34,-4 -41,-12 -8,-8 -12,-19 -12,-35 0,-15 3,-35 9,-58l69 -298 -254 0 -75 315c0,12 0,21 0,25 0,23 13,34 39,34l-5 29 -273 0c-20,0 -34,-4 -42,-12 -8,-8 -11,-19 -11,-35 0,-15 2,-35 9,-58l181 -770c0,-12 0,-20 0,-25 0,-23 -13,-34 -39,-34l5 -28 273 0c21,0 36,4 43,14 7,9 10,22 10,39 0,11 -3,28 -9,52l-57 249 255 0zm839 -36l-128 556c0,12 0,21 0,25 0,23 13,34 39,34l-5 29 -273 0c-20,0 -34,-4 -41,-12 -8,-8 -12,-19 -12,-35 0,-15 3,-35 9,-58l176 -770c3,-12 4,-20 4,-25 0,-23 -13,-34 -39,-34l5 -28 713 0 -31 133c-7,30 -22,51 -44,63 -22,11 -53,17 -94,17l-152 0c-37,0 -66,9 -85,26 -20,17 -34,44 -42,79zm1433 -491l-132 577 486 -549c4,-18 6,-32 6,-44 0,-30 -14,-47 -41,-50l5 -29 301 0c36,0 54,17 54,50l-7 45 -234 1012c-3,18 -5,32 -5,44 0,30 13,47 41,50l-6 29 -301 0c-35,0 -53,-17 -53,-50l7 -45 132 -568 -487 540c-3,18 -5,32 -5,44 0,30 14,47 41,50l-5 29 -301 0c-36,0 -54,-17 -54,-50l7 -45 239 -1026 -5 14c3,-18 5,-32 5,-44 0,-30 -14,-47 -41,-50l5 -29 302 0c35,0 53,17 53,50l-7 45zm1400 527l63 -267c0,-12 0,-20 0,-25 0,-23 -13,-34 -40,-34l6 -28 272 0c22,0 36,4 43,14 7,9 11,22 11,39 0,11 -3,28 -9,52l-182 769c0,12 0,21 0,25 0,23 13,34 39,34l-5 29 -273 0c-20,0 -34,-4 -41,-12 -8,-8 -12,-19 -12,-35 0,-15 3,-35 9,-58l69 -298 -254 0 -75 315c0,12 0,21 0,25 0,23 13,34 39,34l-5 29 -273 0c-20,0 -34,-4 -42,-12 -8,-8 -11,-19 -11,-35 0,-15 3,-35 9,-58l181 -770c0,-12 0,-20 0,-25 0,-23 -13,-34 -39,-34l5 -28 273 0c21,0 36,4 43,14 7,9 10,22 10,39 0,11 -3,28 -8,52l-58 249 255 0zm1071 -75c1,-4 2,-12 2,-21 0,-42 -29,-62 -86,-62l-107 0 -37 167 116 0c35,0 61,-5 76,-16 16,-11 28,-33 36,-68zm-271 271l-48 207 102 0c48,0 84,-7 106,-20 22,-13 37,-38 47,-76 3,-15 5,-28 5,-40 0,-22 -7,-40 -21,-52 -14,-13 -38,-19 -70,-19l-121 0zm291 -550c80,0 141,19 181,57 41,38 61,87 61,149 0,19 -2,39 -5,59 -12,51 -29,90 -52,118 -23,27 -55,47 -98,60 40,17 72,41 94,71 21,31 32,70 32,116 0,13 0,26 0,39 -3,14 -5,22 -7,27 -19,89 -53,155 -101,196 -54,46 -131,70 -232,70l-483 0c-21,0 -35,-5 -42,-15 -8,-9 -11,-22 -11,-39 0,-10 3,-28 9,-51l176 -770c3,-12 4,-20 4,-25 0,-23 -13,-34 -39,-34l5 -28 508 0zm757 757l205 0c64,0 108,-4 133,-11 25,-7 44,-22 57,-44l29 0 -32 142c-13,56 -37,92 -71,109 -33,16 -90,25 -170,25l-285 0c-85,0 -149,-20 -190,-61 -47,-45 -70,-119 -70,-221 0,-26 3,-57 9,-93 6,-37 14,-75 23,-117 42,-194 98,-326 170,-396 72,-71 187,-106 343,-106l57 0c102,0 181,19 236,57 60,42 90,109 90,201l-5 62c-18,82 -30,132 -36,150 -19,52 -60,78 -124,78l-439 0 -21 96c-5,19 -7,36 -7,50 0,31 8,52 26,63 17,10 41,16 72,16zm-23 -412l279 0 9 -34c6,-23 9,-43 9,-58 0,-55 -40,-82 -119,-82 -57,0 -99,16 -127,48 -22,26 -39,68 -51,126zm1019 412l142 0c65,0 109,-4 134,-11 25,-7 44,-22 57,-44l29 0 -33 142c-13,56 -36,92 -70,109 -34,16 -90,25 -170,25l-253 0c-86,0 -144,-20 -176,-58 -31,-39 -47,-103 -47,-194 0,-26 7,-71 20,-135 5,-23 16,-75 35,-157 40,-165 94,-282 164,-352 55,-55 122,-82 202,-82l422 0 -37 146c-11,39 -55,58 -132,58l-157 0c-37,0 -69,14 -95,42 -27,28 -45,65 -53,110l-59 258c-6,28 -9,49 -9,64 0,26 7,46 20,59 13,13 35,20 66,20zm1970 -444l-133 561c0,12 0,21 0,25 0,23 13,34 39,34l-5 29 -273 0c-20,0 -34,-4 -42,-12 -8,-8 -11,-19 -11,-35 0,-15 3,-35 8,-58l125 -546c4,-13 6,-25 6,-37 0,-23 -8,-40 -22,-52 -14,-12 -39,-18 -74,-18 -73,0 -117,35 -133,104l-133 566c0,12 0,21 0,25 0,23 13,34 39,34l-5 29 -273 0c-20,0 -34,-4 -42,-12 -7,-8 -11,-19 -11,-35 0,-15 3,-35 9,-58l126 -546c4,-13 5,-25 5,-37 0,-23 -7,-40 -21,-52 -15,-12 -39,-18 -74,-18 -73,0 -118,35 -133,104l-135 566c0,12 0,21 0,25 0,23 13,34 39,34l-5 29 -273 0c-20,0 -34,-4 -42,-12 -7,-8 -11,-19 -11,-35 0,-15 3,-35 9,-58l178 -770c0,-12 0,-20 0,-25 0,-23 -13,-34 -39,-34l5 -28 273 0c21,0 35,4 42,14 7,9 11,22 11,39 0,7 -1,16 -3,27 -1,10 -5,25 -9,44l17 0 52 -80c15,-24 38,-40 69,-48 30,-8 86,-12 168,-12 56,0 99,16 130,48 23,23 37,54 45,92l17 0 56 -76c17,-25 43,-42 77,-51 34,-9 97,-13 190,-13 62,0 109,15 141,46 32,31 48,69 48,116 0,33 -1,58 -3,74 -2,16 -8,47 -19,93z"/>
  <g id="_767441392">
   <path class="fil3" d="M8460 2488c-8,0 -13,-2 -17,-5 -4,-3 -6,-7 -8,-14l-108 -359 -110 514c-3,14 -11,21 -24,21l-17 0c-7,0 -12,-2 -15,-6 -3,-4 -4,-9 -3,-15l129 -610c3,-15 12,-22 26,-22l25 0c6,0 10,2 13,5 2,3 4,5 4,7l124 412 300 -412c2,-2 4,-4 7,-7 4,-3 9,-5 15,-5l23 0c15,0 20,7 17,22l-130 610c-3,14 -11,21 -25,21l-17 0c-7,0 -11,-2 -14,-6 -4,-4 -4,-9 -3,-15l104 -490 -244 335c-4,6 -9,10 -14,14 -5,3 -11,5 -19,5l-19 0zm544 -195l102 0c65,0 111,17 138,50 26,32 34,75 23,127 -6,28 -14,53 -26,74 -11,22 -26,40 -44,55 -19,15 -41,26 -68,34 -27,8 -58,12 -94,12l-143 0c-6,0 -11,-2 -14,-6 -3,-4 -4,-9 -3,-15l96 -444c3,-13 11,-20 25,-20l16 0c13,0 18,7 15,20l-23 113zm-13 54l-51 243 95 0c53,0 94,-10 121,-32 28,-21 46,-50 54,-88 4,-18 5,-35 4,-51 -1,-15 -5,-28 -13,-39 -8,-11 -19,-19 -35,-24 -15,-6 -35,-9 -60,-9l-115 0zm348 277c-3,14 -12,21 -25,21l-15 0c-7,0 -11,-2 -14,-6 -3,-4 -4,-9 -3,-15l94 -444c3,-13 11,-20 25,-20l16 0c14,0 19,7 16,20l-94 444zm509 -254l290 0 40 -190c4,-13 12,-20 26,-20l15 0c14,0 19,7 16,20l-94 444c-3,14 -11,21 -24,21l-16 0c-6,0 -11,-2 -14,-6 -3,-4 -4,-9 -3,-15l43 -200 -291 0 -43 200c-3,14 -11,21 -24,21l-16 0c-6,0 -10,-2 -14,-6 -3,-4 -4,-9 -2,-15l94 -444c3,-13 11,-20 25,-20l16 0c13,0 19,7 16,20l-40 190zm475 -5c8,-32 20,-61 35,-87 16,-27 34,-49 56,-68 21,-18 45,-33 71,-44 26,-10 54,-15 83,-15 67,0 114,21 142,64 27,43 33,101 18,176l-3 14c-1,6 -4,11 -9,15 -5,4 -10,5 -17,5l-331 0c-5,23 -7,46 -6,67 1,21 5,39 12,55 8,16 19,29 35,38 16,10 37,15 63,15 24,0 45,-3 62,-8 18,-5 32,-10 44,-17 11,-6 20,-13 27,-20 7,-7 12,-12 16,-16 7,-8 12,-13 15,-14 4,-2 9,-3 16,-3l15 0c5,0 10,2 13,6 4,3 4,7 3,13 -3,9 -9,20 -18,33 -9,13 -23,25 -40,37 -18,12 -39,22 -64,30 -25,9 -55,13 -89,13 -28,0 -53,-5 -76,-16 -23,-11 -41,-25 -56,-44 -15,-18 -25,-41 -31,-67 -6,-27 -7,-56 -2,-88 1,-9 4,-21 7,-37 3,-15 6,-28 9,-37zm352 8c6,-23 8,-45 7,-66 -2,-20 -7,-38 -15,-53 -9,-16 -22,-28 -38,-36 -16,-9 -37,-13 -61,-13 -24,0 -46,4 -66,13 -21,8 -39,20 -56,36 -17,16 -31,34 -43,54 -11,21 -19,42 -24,65l296 0zm388 272c-6,0 -11,-2 -14,-6 -3,-4 -4,-9 -3,-15l94 -444c3,-13 12,-20 25,-20l364 0c14,0 19,7 16,20l-94 444c-4,14 -12,21 -25,21l-16 0c-6,0 -10,-2 -13,-6 -4,-4 -5,-9 -3,-15l87 -410 -290 0 -88 410c-3,14 -11,21 -24,21l-16 0zm569 -280c8,-32 20,-61 36,-87 15,-27 34,-49 55,-68 22,-18 45,-33 71,-44 27,-10 54,-15 83,-15 68,0 115,21 142,64 27,43 34,101 19,176l-3 14c-1,6 -4,11 -9,15 -5,4 -11,5 -17,5l-332 0c-4,23 -6,46 -6,67 1,21 5,39 13,55 7,16 19,29 35,38 15,10 36,15 62,15 25,0 45,-3 63,-8 17,-5 32,-10 43,-17 12,-6 21,-13 28,-20 7,-7 12,-12 16,-16 6,-8 12,-13 15,-14 3,-2 8,-3 15,-3l15 0c6,0 10,2 14,6 3,3 4,7 2,13 -2,9 -8,20 -18,33 -9,13 -22,25 -40,37 -17,12 -38,22 -64,30 -25,9 -54,13 -89,13 -28,0 -53,-5 -76,-16 -22,-11 -41,-25 -55,-44 -15,-18 -25,-41 -32,-67 -6,-27 -7,-56 -2,-88 2,-9 4,-21 7,-37 4,-15 7,-28 9,-37zm353 8c5,-23 7,-45 6,-66 -1,-20 -6,-38 -15,-53 -8,-16 -21,-28 -38,-36 -16,-9 -36,-13 -61,-13 -23,0 -45,4 -66,13 -20,8 -39,20 -56,36 -16,16 -31,34 -42,54 -12,21 -20,42 -25,65l297 0zm335 281c-41,0 -72,-7 -94,-22 -23,-14 -39,-31 -49,-52l-48 221c-3,14 -11,21 -24,21l-16 0c-6,0 -11,-2 -14,-6 -3,-4 -4,-9 -3,-15l133 -621c3,-13 11,-20 24,-20l16 0c6,0 10,2 14,5 3,4 4,9 2,15l-9 44c10,-10 20,-20 31,-29 10,-9 22,-17 35,-23 13,-7 28,-12 44,-16 15,-4 34,-5 54,-5 36,0 66,6 88,20 23,13 40,30 52,52 12,21 20,45 22,72 3,27 2,54 -3,81 -1,9 -2,18 -4,26 -2,8 -4,17 -7,26 -7,28 -16,55 -29,81 -12,27 -28,51 -47,73 -19,21 -43,38 -70,52 -28,13 -61,20 -98,20zm-99 -285c-2,9 -5,21 -8,36 -3,15 -6,27 -8,36 -3,19 -4,38 -2,57 2,19 7,36 16,51 8,14 21,27 37,36 17,10 38,15 64,15 26,0 48,-5 69,-15 20,-9 38,-22 53,-38 15,-16 28,-34 38,-54 11,-21 20,-42 27,-65 3,-9 5,-18 6,-26 2,-8 3,-17 5,-26 3,-22 5,-44 4,-64 0,-21 -4,-39 -12,-55 -7,-16 -18,-28 -33,-38 -15,-10 -35,-14 -61,-14 -27,0 -51,5 -73,15 -21,9 -40,22 -57,38 -16,16 -30,34 -41,53 -12,19 -19,38 -24,58zm458 -4c8,-32 20,-61 35,-87 16,-27 34,-49 56,-68 21,-18 45,-33 71,-44 26,-10 54,-15 83,-15 67,0 114,21 142,64 27,43 33,101 18,176l-2 14c-2,6 -5,11 -10,15 -5,4 -10,5 -17,5l-331 0c-5,23 -7,46 -6,67 1,21 5,39 12,55 8,16 19,29 35,38 16,10 37,15 63,15 24,0 45,-3 62,-8 18,-5 32,-10 44,-17 11,-6 20,-13 27,-20 7,-7 12,-12 16,-16 7,-8 12,-13 16,-14 3,-2 8,-3 15,-3l15 0c5,0 10,2 13,6 4,3 5,7 3,13 -3,9 -9,20 -18,33 -9,13 -23,25 -40,37 -18,12 -39,22 -64,30 -25,9 -55,13 -89,13 -28,0 -53,-5 -76,-16 -23,-11 -41,-25 -56,-44 -14,-18 -25,-41 -31,-67 -6,-27 -7,-56 -2,-88 1,-9 4,-21 7,-37 3,-15 6,-28 9,-37zm352 8c6,-23 8,-45 7,-66 -2,-20 -6,-38 -15,-53 -9,-16 -21,-28 -38,-36 -16,-9 -37,-13 -61,-13 -24,0 -46,4 -66,13 -21,8 -39,20 -56,36 -17,16 -31,34 -42,54 -12,21 -20,42 -25,65l296 0zm142 272c-6,0 -11,-2 -14,-6 -3,-4 -4,-9 -3,-15l94 -444c3,-13 12,-20 25,-20l364 0c14,0 19,7 16,20l-94 444c-4,14 -12,21 -25,21l-15 0c-7,0 -11,-2 -14,-6 -4,-4 -5,-9 -3,-15l87 -410 -290 0 -88 410c-3,14 -11,21 -24,21l-16 0zm750 9c-41,0 -72,-7 -94,-22 -23,-14 -39,-31 -49,-52l-48 221c-3,14 -11,21 -24,21l-16 0c-6,0 -11,-2 -14,-6 -3,-4 -4,-9 -3,-15l133 -621c3,-13 11,-20 24,-20l16 0c6,0 11,2 14,5 3,4 4,9 2,15l-9 44c10,-10 20,-20 31,-29 10,-9 22,-17 35,-23 13,-7 28,-12 44,-16 15,-4 34,-5 54,-5 36,0 66,6 88,20 23,13 40,30 52,52 13,21 20,45 22,72 3,27 2,54 -3,81 -1,9 -2,18 -4,26 -2,8 -4,17 -7,26 -7,28 -16,55 -29,81 -12,27 -28,51 -47,73 -19,21 -43,38 -70,52 -28,13 -61,20 -98,20zm-99 -285c-2,9 -5,21 -8,36 -3,15 -6,27 -8,36 -3,19 -4,38 -2,57 2,19 7,36 16,51 8,14 21,27 37,36 17,10 38,15 64,15 26,0 48,-5 69,-15 20,-9 38,-22 53,-38 15,-16 28,-34 38,-54 11,-21 20,-42 27,-65 3,-9 5,-18 7,-26 1,-8 2,-17 4,-26 3,-22 5,-44 4,-64 0,-21 -4,-39 -12,-55 -7,-16 -18,-28 -33,-38 -15,-10 -35,-14 -61,-14 -27,0 -51,5 -73,15 -21,9 -40,22 -57,38 -16,16 -30,34 -41,53 -12,19 -19,38 -24,58zm706 -218c33,0 62,5 86,16 23,11 42,26 56,45 14,19 23,41 27,67 5,26 4,54 -1,84 -2,5 -3,11 -4,18 -1,7 -3,14 -4,21 -2,8 -3,15 -5,22 -2,7 -3,13 -4,17 -8,30 -18,58 -32,84 -14,26 -32,49 -52,68 -21,19 -44,34 -72,45 -27,10 -58,16 -91,16 -32,0 -60,-6 -84,-16 -24,-11 -42,-26 -56,-45 -14,-19 -24,-42 -28,-68 -5,-26 -5,-54 1,-84 1,-4 2,-10 3,-17 1,-7 2,-14 4,-22 2,-7 3,-14 5,-21 2,-7 4,-13 5,-18 7,-30 18,-58 31,-84 14,-26 31,-48 52,-67 20,-19 44,-34 72,-45 27,-11 57,-16 91,-16zm110 217c9,-54 4,-94 -15,-122 -19,-28 -50,-41 -95,-41 -22,0 -43,3 -63,10 -20,7 -39,18 -56,32 -16,13 -31,30 -43,50 -13,21 -22,44 -28,71 -3,9 -6,21 -9,34 -3,14 -5,25 -6,35 -10,53 -5,94 14,121 18,28 50,42 95,42 22,0 43,-4 63,-11 20,-7 38,-18 55,-31 17,-14 32,-31 44,-51 12,-20 22,-44 29,-70 2,-10 5,-21 8,-35 3,-13 5,-25 7,-34zm467 359c-3,13 -12,20 -25,20l-16 0c-14,0 -19,-7 -16,-20l18 -82 -304 0 -18 82c-3,13 -11,20 -25,20l-16 0c-14,0 -19,-7 -16,-20l24 -116c4,-14 12,-21 26,-21l15 0c12,0 21,-1 30,-4 8,-3 16,-7 22,-14 6,-6 11,-15 16,-26 5,-11 9,-26 13,-43l68 -323c3,-13 11,-20 25,-20l239 0c14,0 19,7 16,20l-86 409 18 0c6,0 11,1 14,5 3,4 4,9 3,15l-25 118zm-221 -199c-3,11 -5,21 -8,28 -3,8 -6,15 -9,20 -3,6 -6,11 -9,14l180 0 80 -376 -167 0 -67 314zm629 -377c41,0 72,7 92,21 21,14 36,32 47,52l9 -44c3,-13 11,-20 24,-20l16 0c6,0 11,2 14,5 3,4 4,9 3,15l-94 444c-3,14 -11,21 -24,21l-16 0c-6,0 -11,-2 -14,-6 -3,-4 -4,-9 -3,-15l9 -44c-10,11 -20,21 -29,30 -10,9 -22,16 -34,23 -12,6 -26,12 -42,15 -16,4 -34,6 -54,6 -36,0 -65,-7 -88,-20 -22,-14 -39,-31 -50,-52 -11,-22 -18,-46 -20,-73 -2,-26 -1,-53 3,-81 2,-9 3,-18 5,-26 2,-8 4,-17 6,-26 7,-27 17,-53 28,-81 12,-27 28,-51 47,-72 18,-22 41,-39 69,-52 27,-14 59,-20 96,-20zm94 285c3,-10 5,-22 8,-37 4,-15 6,-27 8,-36 4,-19 5,-37 3,-56 -1,-19 -6,-36 -14,-51 -8,-15 -20,-27 -36,-37 -16,-10 -37,-14 -63,-14 -26,0 -48,4 -68,14 -19,10 -36,22 -51,38 -15,16 -28,34 -38,55 -10,20 -19,42 -25,64 -3,9 -5,18 -7,26 -1,8 -3,17 -4,26 -4,23 -5,44 -5,65 0,21 4,39 10,55 7,16 17,28 32,38 14,9 35,14 60,14 27,0 51,-5 72,-15 22,-10 40,-23 56,-39 16,-16 29,-33 39,-52 11,-20 18,-39 23,-58zm199 -71c8,-32 19,-61 35,-87 16,-27 34,-49 55,-68 22,-18 46,-33 72,-44 26,-10 54,-15 83,-15 67,0 114,21 141,64 28,43 34,101 19,176l-3 14c-1,6 -4,11 -9,15 -5,4 -11,5 -17,5l-332 0c-4,23 -6,46 -5,67 0,21 4,39 12,55 7,16 19,29 35,38 16,10 37,15 63,15 24,0 45,-3 62,-8 18,-5 32,-10 44,-17 11,-6 20,-13 27,-20 7,-7 12,-12 16,-16 7,-8 12,-13 15,-14 4,-2 9,-3 16,-3l15 0c5,0 10,2 13,6 3,3 4,7 2,13 -2,9 -8,20 -17,33 -10,13 -23,25 -40,37 -18,12 -39,22 -64,30 -25,9 -55,13 -89,13 -28,0 -54,-5 -76,-16 -23,-11 -42,-25 -56,-44 -15,-18 -25,-41 -31,-67 -7,-27 -7,-56 -2,-88 1,-9 3,-21 7,-37 3,-15 6,-28 9,-37zm352 8c5,-23 8,-45 6,-66 -1,-20 -6,-38 -14,-53 -9,-16 -22,-28 -38,-36 -17,-9 -37,-13 -61,-13 -24,0 -46,4 -66,13 -21,8 -40,20 -56,36 -17,16 -31,34 -43,54 -11,21 -19,42 -24,65l296 0zm534 272c-6,0 -11,-2 -14,-6 -3,-4 -4,-9 -3,-15l72 -338 -172 253c-5,7 -10,13 -15,18 -6,6 -13,8 -23,8l-25 0c-9,0 -15,-3 -19,-8 -3,-6 -5,-12 -7,-18l-73 -263 -73 348c-3,14 -12,21 -25,21l-15 0c-7,0 -11,-2 -14,-6 -4,-4 -4,-9 -3,-15l95 -446c1,-5 4,-10 8,-13 5,-3 9,-5 14,-5l22 0c9,0 15,5 18,14l93 326 225 -326c8,-9 16,-14 24,-14l30 0c5,0 9,2 12,5 3,3 4,8 3,13l-95 446c-3,14 -11,21 -24,21l-16 0zm202 -62c3,-7 7,-14 11,-18 4,-5 10,-7 17,-7l42 0c4,0 8,2 10,5 3,4 2,8 -1,13l-68 119c-3,7 -7,12 -11,15 -4,3 -10,4 -17,4l-15 0c-5,0 -9,-1 -11,-5 -2,-4 -1,-9 1,-14l42 -112zm739 -165l156 -239c2,-4 7,-8 12,-13 6,-4 16,-6 28,-6l104 0c7,0 12,2 16,7 4,5 5,11 4,18l-92 434c-2,7 -5,13 -11,18 -6,5 -12,8 -19,8l-71 0c-7,0 -12,-3 -16,-8 -4,-5 -6,-11 -5,-18l51 -234 -104 157c-3,5 -8,10 -14,15 -7,6 -14,8 -23,8l-73 0c-8,0 -15,-2 -19,-8 -5,-5 -7,-10 -9,-15l-36 -157 -50 234c-1,7 -5,13 -11,18 -6,5 -12,8 -19,8l-71 0c-7,0 -12,-3 -16,-8 -4,-5 -6,-11 -4,-18l92 -434c1,-7 5,-13 11,-18 6,-5 13,-7 20,-7l84 0c12,0 20,2 24,6 4,5 7,9 8,13l53 239zm919 -233c1,-7 5,-13 11,-18 7,-5 13,-7 20,-7l71 0c7,0 12,2 16,7 3,5 5,11 3,18l-92 434c-1,7 -5,13 -11,18 -6,5 -12,8 -19,8l-71 0c-6,0 -12,-3 -16,-8 -4,-5 -5,-11 -4,-18l92 -434zm-105 276c-12,56 -37,101 -74,134 -38,33 -92,50 -162,50l-201 0c-7,0 -12,-3 -17,-8 -4,-5 -5,-11 -4,-18l93 -434c1,-7 5,-13 11,-18 6,-5 12,-7 19,-7l71 0c7,0 12,2 16,7 4,5 5,11 4,18l-18 83 87 0c28,0 54,5 78,14 24,10 44,23 61,41 16,17 27,37 34,61 8,23 8,49 2,77zm-318 72l80 0c16,0 30,-1 44,-4 13,-2 25,-6 35,-11 10,-6 19,-14 26,-24 7,-9 12,-22 15,-38 4,-15 4,-28 1,-38 -3,-10 -8,-18 -16,-23 -8,-6 -18,-10 -30,-12 -13,-2 -27,-3 -42,-3l-80 0 -33 153zm1330 -373c7,0 12,2 16,7 4,5 5,11 4,18l-93 434c-1,7 -4,13 -10,18 -6,5 -13,8 -20,8l-70 0c-7,0 -13,-3 -17,-8 -4,-5 -5,-11 -4,-18l75 -347 -218 0 -75 347c-1,7 -5,13 -11,18 -6,5 -12,8 -19,8l-71 0c-6,0 -12,-3 -16,-8 -4,-5 -5,-11 -4,-18l92 -434c1,-7 5,-13 11,-18 7,-5 13,-7 20,-7l410 0z"/>
   <path class="fil3" d="M19782 2654c-20,0 -37,-2 -53,-6 -15,-3 -29,-8 -40,-14 -12,-5 -21,-11 -29,-18 -7,-6 -13,-13 -16,-18l-43 198c-1,7 -5,13 -11,18 -6,5 -12,8 -19,8l-71 0c-7,0 -12,-3 -16,-8 -4,-5 -6,-11 -4,-18l130 -611c1,-7 5,-13 11,-18 6,-5 12,-7 19,-7l71 0c7,0 12,2 16,7 4,5 6,11 4,18l-4 21c6,-5 13,-11 21,-18 7,-6 17,-12 28,-18 11,-5 24,-10 40,-14 15,-4 33,-5 54,-5 29,0 55,6 78,19 23,12 42,29 57,50 15,22 26,46 32,73 6,27 7,55 3,84 -2,9 -4,20 -7,33 -2,12 -5,23 -7,32 -8,29 -18,56 -32,82 -14,26 -31,48 -51,67 -21,20 -44,35 -71,46 -27,11 -57,17 -90,17zm125 -226c3,-9 5,-18 7,-26 1,-8 2,-17 4,-26 4,-40 -2,-69 -19,-87 -17,-18 -41,-27 -72,-27 -30,0 -58,9 -82,27 -25,18 -42,44 -53,78 -3,9 -6,21 -9,35 -2,14 -5,26 -6,36 -3,32 3,57 20,76 17,19 40,28 71,28 30,0 58,-9 83,-27 24,-17 43,-46 56,-87zm489 -277c31,0 60,5 86,16 27,12 49,27 67,46 18,18 31,41 39,66 9,26 11,53 6,81 0,6 -1,13 -3,22 -1,8 -3,17 -5,26 -2,8 -4,17 -6,25 -2,9 -3,16 -5,21 -9,29 -20,55 -33,80 -14,24 -31,45 -52,63 -21,17 -47,31 -76,41 -30,11 -66,16 -107,16 -31,0 -60,-6 -86,-17 -27,-11 -48,-26 -66,-45 -18,-19 -31,-41 -39,-66 -9,-25 -11,-52 -7,-81 0,-6 1,-13 3,-21 2,-8 3,-17 5,-26 2,-8 4,-17 6,-26 2,-8 3,-15 5,-21 8,-29 20,-55 34,-80 15,-24 33,-45 55,-63 22,-18 47,-32 77,-42 29,-10 63,-15 102,-15zm77 209c3,-19 2,-35 -3,-48 -4,-12 -11,-23 -20,-30 -9,-7 -19,-13 -31,-15 -12,-3 -24,-5 -37,-5 -13,0 -26,2 -39,5 -13,2 -26,8 -38,15 -12,7 -23,18 -33,30 -10,13 -18,29 -24,48 -2,5 -3,11 -5,19 -2,7 -4,15 -6,23 -1,8 -3,16 -4,24 -2,8 -2,14 -3,18 -2,19 -1,35 4,48 4,13 11,23 20,30 9,8 19,13 31,16 12,3 24,4 37,4 13,0 26,-1 39,-4 13,-3 26,-8 38,-16 12,-7 23,-17 33,-30 10,-13 18,-29 23,-48 2,-4 3,-10 5,-18 2,-8 4,-16 6,-24 2,-8 3,-16 4,-23 2,-8 3,-14 3,-19zm538 285c-7,0 -12,-3 -16,-8 -4,-5 -6,-11 -5,-18l56 -261 -276 276c-6,7 -14,11 -23,11l-80 0c-7,0 -12,-3 -16,-8 -4,-5 -6,-11 -4,-18l92 -434c1,-7 5,-13 11,-18 6,-5 13,-7 20,-7l70 0c7,0 12,2 16,7 4,5 5,11 4,18l-55 261 276 -276c7,-7 14,-10 23,-10l80 0c7,0 12,2 16,7 4,5 5,11 4,18l-92 434c-2,7 -5,13 -11,18 -6,5 -12,8 -19,8l-71 0zm217 -122c0,-6 3,-12 10,-17 7,-5 14,-8 21,-8l71 0c6,0 11,3 14,10 3,6 6,11 11,15 6,7 15,12 26,15 12,3 30,4 56,4 35,0 60,-4 75,-12 14,-8 23,-18 25,-30 3,-11 -1,-20 -12,-29 -10,-9 -31,-14 -61,-14l-9 0 -42 0c-7,0 -13,-2 -16,-7 -4,-5 -5,-11 -4,-18l13 -62c1,-6 5,-12 11,-17 6,-5 13,-8 20,-8l42 0c33,0 56,-4 68,-12 13,-9 21,-18 23,-30 3,-11 -2,-20 -14,-28 -12,-9 -32,-13 -60,-13 -21,0 -37,3 -50,7 -12,4 -23,10 -32,17 -6,5 -12,10 -17,16 -6,6 -12,9 -19,9l-71 0c-7,0 -12,-3 -16,-8 -5,-5 -6,-10 -4,-17 4,-13 10,-28 20,-44 10,-15 24,-30 42,-44 17,-14 40,-25 66,-34 27,-9 59,-13 95,-13 31,0 58,4 82,13 25,8 45,20 61,34 15,14 27,31 34,50 6,20 8,40 3,61 -3,18 -10,35 -19,51 -9,16 -20,30 -35,43 23,28 30,62 22,102 -5,21 -12,41 -21,59 -10,18 -24,34 -42,47 -18,14 -41,24 -69,32 -28,7 -63,11 -104,11 -35,0 -65,-4 -89,-13 -25,-8 -45,-19 -60,-32 -16,-13 -27,-27 -34,-42 -7,-16 -11,-30 -11,-44zm898 -217c3,-14 0,-24 -7,-29 -8,-5 -22,-8 -43,-8l-141 0 -16 74 141 0c21,0 36,-2 46,-7 10,-6 16,-16 20,-30zm-248 229l147 0c20,0 36,-2 48,-8 11,-6 19,-17 22,-33 3,-15 0,-26 -9,-32 -8,-6 -23,-9 -43,-9l-148 0 -17 82zm-125 110c-5,0 -9,-2 -12,-6 -3,-4 -4,-8 -3,-13l95 -447c1,-5 4,-10 8,-14 5,-3 9,-5 14,-5l253 0c23,0 45,3 64,10 19,7 36,17 49,29 13,12 22,27 27,44 5,17 6,35 2,55 -6,27 -15,47 -27,62 -12,15 -26,27 -42,37 19,13 30,28 34,47 4,19 4,40 -1,64 -10,47 -30,81 -61,103 -31,22 -68,34 -113,34l-287 0zm849 -494c32,0 60,5 86,16 27,12 49,27 67,46 18,18 31,41 39,66 9,26 11,53 6,81 0,6 -1,13 -3,22 -1,8 -3,17 -5,26 -2,8 -4,17 -6,25 -2,9 -3,16 -5,21 -9,29 -20,55 -33,80 -14,24 -31,45 -52,63 -21,17 -47,31 -76,41 -30,11 -66,16 -107,16 -31,0 -60,-6 -86,-17 -26,-11 -48,-26 -66,-45 -18,-19 -31,-41 -39,-66 -9,-25 -11,-52 -7,-81 0,-6 1,-13 3,-21 2,-8 3,-17 5,-26 2,-8 4,-17 6,-26 2,-8 3,-15 5,-21 8,-29 20,-55 34,-80 15,-24 33,-45 55,-63 22,-18 47,-32 77,-42 29,-10 63,-15 102,-15zm77 209c3,-19 2,-35 -3,-48 -4,-12 -11,-23 -20,-30 -9,-7 -19,-13 -31,-15 -12,-3 -24,-5 -37,-5 -13,0 -26,2 -39,5 -13,2 -26,8 -38,15 -12,7 -23,18 -33,30 -10,13 -18,29 -24,48 -2,5 -3,11 -5,19 -2,7 -4,15 -6,23 -1,8 -3,16 -4,24 -2,8 -2,14 -3,18 -2,19 -1,35 4,48 4,13 11,23 20,30 9,8 19,13 31,16 12,3 24,4 37,4 13,0 26,-1 39,-4 13,-3 26,-8 38,-16 12,-7 23,-17 33,-30 10,-13 18,-29 23,-48 2,-4 3,-10 5,-18 2,-8 4,-16 6,-24 2,-8 3,-16 4,-23 2,-8 3,-14 3,-19zm314 -175c2,-7 5,-13 11,-18 7,-5 13,-7 20,-7l301 0c7,0 12,2 16,7 4,5 5,11 4,18l-74 348 23 0c7,0 12,2 16,7 4,5 5,11 4,18l-35 164c-1,7 -5,13 -11,18 -6,5 -13,7 -19,7l-68 0c-7,0 -13,-2 -18,-7 -4,-5 -6,-11 -5,-18l17 -77 -249 0 -17 77c-1,7 -5,13 -11,18 -6,5 -13,7 -19,7l-71 0c-7,0 -12,-2 -16,-7 -4,-5 -5,-11 -4,-18l35 -164c1,-7 5,-13 11,-18 6,-5 13,-7 19,-7l25 0c8,0 16,-3 22,-7 6,-5 12,-11 16,-18 5,-8 9,-16 12,-26 4,-10 7,-19 8,-29l57 -268zm157 348l56 -261 -109 0 -42 194c-3,14 -6,27 -9,36 -3,10 -8,20 -15,31l119 0zm621 112c-6,0 -12,-3 -16,-8 -4,-5 -5,-11 -4,-18l56 -261 -276 276c-7,7 -15,11 -23,11l-80 0c-7,0 -13,-3 -17,-8 -4,-5 -5,-11 -4,-18l92 -434c2,-7 5,-13 12,-18 6,-5 12,-7 19,-7l71 0c7,0 12,2 16,7 3,5 5,11 3,18l-55 261 276 -276c7,-7 15,-10 24,-10l80 0c7,0 12,2 16,7 3,5 5,11 3,18l-92 434c-1,7 -5,13 -11,18 -5,5 -12,8 -19,8l-71 0zm522 -227l156 -239c3,-4 7,-8 13,-13 6,-4 15,-6 27,-6l104 0c7,0 13,2 16,7 4,5 5,11 4,18l-92 434c-1,7 -5,13 -11,18 -6,5 -12,8 -19,8l-71 0c-7,0 -12,-3 -16,-8 -4,-5 -6,-11 -4,-18l50 -234 -103 157c-4,5 -8,10 -15,15 -6,6 -14,8 -23,8l-72 0c-9,0 -16,-2 -20,-8 -4,-5 -7,-10 -8,-15l-37 -157 -50 234c-1,7 -5,13 -11,18 -6,5 -12,8 -19,8l-71 0c-7,0 -12,-3 -16,-8 -4,-5 -6,-11 -4,-18l92 -434c1,-7 5,-13 11,-18 6,-5 13,-7 20,-7l84 0c12,0 20,2 24,6 4,5 7,9 8,13l53 239zm480 94c7,0 12,3 16,8 4,5 5,10 4,17l-18 82c-1,7 -5,13 -10,18 -6,5 -13,8 -20,8l-80 0c-7,0 -12,-3 -16,-8 -4,-5 -5,-11 -4,-18l17 -82c2,-7 5,-12 12,-17 6,-5 12,-8 19,-8l80 0zm38 -81c-2,7 -5,13 -12,18 -6,5 -12,7 -19,7l-71 0c-7,0 -12,-2 -16,-7 -4,-5 -5,-11 -4,-18l89 -414c1,-7 5,-12 11,-17 6,-5 12,-8 19,-8l71 0c7,0 12,3 16,8 4,5 5,10 4,17l-88 414z"/>
  </g>
 </g>
</svg>
